<!-- Copyright 2000-2023 JetBrains s.r.o. and contributors. Use of this source code is governed by the Apache 2.0 license. -->
<svg width="16" height="16" viewBox="0 0 16 16" fill="none" xmlns="http://www.w3.org/2000/svg">
    <path d="M 4.3181 3.3106 C 4.8718 3.3166 5.3849 3.0204 5.6564 2.5379 L 6.6239 0.8189 C 6.6582 0.758 6.7057 0.7335 6.7391 0.7284 C 7.0857 0.6768 7.4407 0.65 7.8023 0.65 C 8.164 0.65 8.519 0.6768 8.8655 0.7284 C 8.8989 0.7333 8.9465 0.758 8.9807 0.8189 L 9.9481 2.5379 C 10.2198 3.0204 10.7328 3.3166 11.2865 3.3106 L 13.258 3.289 C 13.3276 3.2882 13.3728 3.3169 13.3939 3.3435 C 13.8353 3.8964 14.196 4.5158 14.4589 5.184 C 14.4712 5.2153 14.4735 5.2686 14.4381 5.3287 L 13.4324 7.0273 C 13.1503 7.5039 13.1503 8.0961 13.4324 8.5727 L 14.4381 10.2713 C 14.4735 10.3314 14.4712 10.3847 14.4589 10.416 C 14.196 11.0842 13.8353 11.7036 13.3939 12.2565 C 13.3728 12.283 13.3276 12.3118 13.258 12.311 L 11.2865 12.2894 C 10.7328 12.2834 10.2198 12.5796 9.9481 13.0621 L 8.9807 14.7811 C 8.9465 14.842 8.8989 14.8667 8.8655 14.8716 C 8.519 14.9232 8.164 14.95 7.8023 14.95 C 7.4407 14.95 7.0857 14.9232 6.7391 14.8716 C 6.7057 14.8665 6.6582 14.842 6.6239 14.7811 L 5.6564 13.0621 C 5.3849 12.5796 4.8718 12.2834 4.3181 12.2894 L 2.3468 12.311 C 2.2772 12.3118 2.232 12.283 2.2108 12.2565 C 1.7694 11.7036 1.4087 11.0841 1.1458 10.4159 C 1.1335 10.3845 1.1311 10.3312 1.1666 10.2712 L 2.1722 8.5727 C 2.4543 8.0961 2.4543 7.5039 2.1722 7.0273 L 1.1666 5.3288 C 1.1311 5.2688 1.1335 5.2155 1.1458 5.1841 C 1.4087 4.5159 1.7694 3.8964 2.2108 3.3435 C 2.232 3.3169 2.2772 3.2882 2.3468 3.289 L 4.3181 3.3106 Z"
          stroke="#88A2FF"/>
    <circle cx="7.5" cy="7.5" r="1.5" stroke="#AB9DFF"/>
</svg>
